<svg xmlns="http://www.w3.org/2000/svg" width="1200" height="650" viewBox="0 0 1200 650" role="img" aria-label="Workbook with restored columns">
  <rect width="1200" height="650" fill="#f8fafc"/>
  <g font-family="Arial, sans-serif">
    <rect x="0" y="0" width="1200" height="42" fill="#111827"/>
    <text x="44" y="30" fill="#e5e7eb" font-size="22">S</text><text x="278" y="30" fill="#e5e7eb" font-size="22">T</text><text x="516" y="30" fill="#e5e7eb" font-size="22">U</text><text x="752" y="30" fill="#e5e7eb" font-size="22">V</text><text x="990" y="30" fill="#e5e7eb" font-size="22">W</text>
    <rect x="0" y="42" width="1200" height="58" fill="#04d9d9"/>
    <g stroke="#111827"><line x1="240" y1="42" x2="240" y2="650"/><line x1="480" y1="42" x2="480" y2="650"/><line x1="720" y1="42" x2="720" y2="650"/><line x1="960" y1="42" x2="960" y2="650"/></g>
    <g font-size="24" font-weight="700">
      <text x="12" y="88">Pygamer</text><text x="266" y="88">Circuit Playground</text><text x="566" y="88">Lego</text><text x="752" y="88">Pipe Cleaners</text><text x="1010" y="88">3D Pen</text>
    </g>
    <rect x="0" y="100" width="1200" height="230" fill="#fff"/>
    <rect x="0" y="330" width="1200" height="230" fill="#fff3cd"/>
    <g fill="#3b82f6" font-size="22">
      <text x="250" y="200">Name 3 things a Circuit</text><text x="250" y="232">Playground can do</text>
      <text x="492" y="200">Build the tallest tower of</text><text x="492" y="232">stacked bricks you can</text>
      <text x="732" y="190">Pipe Cleaner People</text><text x="732" y="260">Pipe Cleaner Rings</text>
      <text x="972" y="190">1. Introduction</text><text x="972" y="260">2. Your Name</text>
      <text x="250" y="430">Connect your Circuit Playground to</text><text x="250" y="462">a laptop</text>
      <text x="492" y="430">Build a house using</text><text x="492" y="462">interlocking bricks</text>
      <text x="732" y="430">Fish</text><text x="732" y="500">Pipe Cleaner Flower</text>
      <text x="972" y="430">Basic Shape Outlines</text><text x="972" y="500">Fix a 3D Print</text>
    </g>
  </g>
</svg>
